<?xml version="1.0" standalone="no"?>
<!DOCTYPE svg PUBLIC "-//W3C//DTD SVG 20010904//EN" "http://www.w3.org/TR/2001/REC-SVG-20010904/DTD/svg10.dtd">
<svg xmlns="http://www.w3.org/2000/svg" xmlns:xlink="http://www.w3.org/1999/xlink" viewBox="0 0 230.4 192">
  <path id="shape0" transform="translate(13.4145354599548, 11.5000008460466)" fill="#000000" fill-rule="evenodd" stroke="none" d="M9.16547 12.14L7.79047 12.97L6.26547 13.34L6.26547 14.1L7.13797 14.2975L7.75547 14.69L8.12296 15.2475L8.24547 15.94L8.05546 16.8375L7.48547 17.53L6.61047 17.9725L5.50547 18.12L4.90547 18.0825L4.34547 17.97L3.85047 17.7925L3.44547 17.56L4.06547 16.3L4.68047 16.54L5.32547 16.62L6.06046 16.45L6.30547 15.94L6.19796 15.595L5.87547 15.36L5.31297 15.225L4.48547 15.18L4.72547 13.28L3.07047 12.6675L1.82547 11.51L1.04547 9.8825L0.785465 7.86L0.935465 6.2775L1.38547 4.89L2.11547 3.745L3.10547 2.89L4.32047 2.3575L5.72547 2.18L6.71296 2.255L7.59547 2.48L8.40297 2.865L9.16547 3.42L8.02546 4.96L7.49546 4.615L6.98547 4.38L6.46047 4.245L5.88547 4.2L4.10047 5.105L3.50547 7.82L3.66047 9.4025L4.12547 10.47L4.87547 11.0775L5.88547 11.28L6.42297 11.235L6.91547 11.1L7.42796 10.865L8.02546 10.52L9.16547 12.14M44.4455 2.94L45.618 3.0275L46.6155 3.29L47.503 3.7225L48.3455 4.32L47.0655 5.74L46.4555 5.3425L45.8655 5.07L45.2505 4.9125L44.5655 4.86L43.4805 5.09L42.6255 5.78L42.0705 6.915L41.8855 8.48L42.0355 10.195L42.4855 11.34L43.2255 11.985L44.2455 12.2L45.1505 12.11L45.9855 11.84L45.9855 9.5L44.3655 9.5L44.1055 7.72L48.4255 7.72L48.4255 12.92L47.0766 13.5644L45.6699 13.9511L44.2055 14.08L42.0555 13.7275L40.4855 12.67L39.7744 11.5778L39.3477 10.1811L39.2055 8.48L39.3805 6.9075L39.9055 5.55L40.7305 4.4425L41.8055 3.62L43.0655 3.11L44.4455 2.94M85.1655 3.06L86.1355 3.87L86.8455 4.98L87.2805 6.35L87.4255 7.94L87.2755 9.5025L86.8255 10.87L86.0955 11.9975L85.1055 12.84L83.8805 13.365L82.4455 13.54L82.0305 13.525L81.6255 13.48L80.8655 15.9L78.9055 15.32L79.7255 12.84L78.768 12.0175L78.0555 10.91L77.613 9.5425L77.4655 7.94L77.6155 6.38L78.0655 5.02L78.798 3.9L79.7955 3.06L81.028 2.535L82.4655 2.36L82.8805 2.375L83.2855 2.42L84.0655 0L86.0055 0.58L85.1655 3.06M82.4655 4.3L80.6355 5.21L80.0255 7.94L80.068 9.0075L80.1955 9.85L80.413 10.5025L80.7255 11L82.9455 4.32L82.7555 4.305L82.4655 4.3M82.4455 11.6L84.2605 10.685L84.8655 7.94L84.6905 6.06L84.1655 4.9L81.9655 11.58L82.1655 11.595L82.4455 11.6M162.085 167.08L161.23 166.745L160.345 166.46L159.11 168.635L156.645 169.36L155.485 169.207L154.605 168.75L154.05 168.032L153.865 167.1L154.07 166.052L154.685 165.27L155.655 164.782L156.925 164.62L157.41 164.63L157.945 164.66L157.945 154.42L160.505 154.42L160.505 165.12L161.59 165.48L162.605 165.92L162.085 167.08M156.525 167.88L157.133 167.77L157.555 167.44L157.813 166.87L157.925 166.04L157.415 165.98L156.925 165.96L156.328 166.027L155.895 166.23L155.633 166.557L155.545 167L155.79 167.66L156.525 167.88M159.205 149.06L159.858 149.173L160.375 149.51L160.713 150.013L160.825 150.62L160.713 151.225L160.375 151.72L159.858 152.05L159.205 152.16L158.568 152.05L158.055 151.72L157.718 151.225L157.605 150.62L157.718 150.013L158.055 149.51L158.568 149.173L159.205 149.06M197.651 40.6617L199.681 40.9367L201.371 41.7617L200.271 43.1617L199.691 42.8667L199.151 42.6617L198.596 42.5417L197.971 42.5017L197.259 42.5892L196.721 42.8517L196.384 43.2742L196.271 43.8417L196.389 44.3842L196.741 44.8117L197.299 45.0892L198.031 45.1817L199.311 45.1817L199.051 46.9417L197.911 46.9417L197.004 47.0317L196.401 47.3017L196.064 47.7617L195.951 48.4217L196.079 49.0492L196.461 49.5317L197.084 49.8392L197.931 49.9417L198.629 49.8892L199.281 49.7317L199.929 49.4642L200.611 49.0817L201.731 50.5817L200.871 51.1142L199.891 51.5117L198.811 51.7592L197.651 51.8417L195.864 51.6292L194.461 50.9917L193.554 49.9692L193.251 48.6017L193.941 46.7567L196.011 45.9017L194.256 45.0867L193.671 43.5617L193.944 42.3617L194.761 41.4417L196.029 40.8567L197.651 40.6617M198.751 38.6617L198.358 38.6242L198.021 38.5117L197.688 38.3342L197.311 38.1017L197.041 37.9292L196.831 37.8117L196.646 37.7442L196.451 37.7217L196.138 37.7742L195.881 37.9317L195.643 38.2092L195.391 38.6217L194.011 37.9417L194.461 37.0942L195.011 36.4317L195.661 36.0042L196.411 35.8617L196.818 35.8967L197.161 36.0017L197.498 36.1717L197.891 36.4017L198.133 36.5742L198.341 36.6917L198.533 36.7592L198.731 36.7817L199.016 36.7317L199.271 36.5817L199.521 36.3167L199.791 35.9217L201.151 36.6017L200.696 37.4592L200.131 38.1117L199.476 38.5242L198.751 38.6617M123.521 6.86174L124.381 7.33674L125.001 8.00174L125.376 8.83174L125.501 9.80174L125.208 11.3217L124.331 12.4017L122.898 13.0467L120.941 13.2617L117.561 13.2617L117.561 2.68174L120.061 2.68174L120.061 6.50174L121.201 6.50174L123.481 2.68174L126.241 2.68174L123.521 6.86174M120.901 11.5017L121.818 11.4067L122.451 11.1217L122.818 10.6017L122.941 9.80174L122.826 9.06174L122.481 8.56174L121.906 8.27674L121.101 8.18174L120.061 8.18174L120.061 11.5017L120.901 11.5017M163.106 2.99674L163.613 3.03424L164.056 3.14674L164.468 3.32924L164.886 3.57674L164.126 5.03674L163.921 4.94924L163.746 4.88674L163.566 4.84924L163.346 4.83674L163.091 4.87924L162.886 5.00674L162.691 5.25424L162.466 5.65674L160.626 9.17674L161.186 10.0642L161.546 10.7667L161.741 11.3992L161.806 12.0767L161.648 12.9267L161.176 13.5967L160.403 14.0317L159.346 14.1767L158.303 14.0342L157.536 13.6067L157.063 12.9442L156.906 12.0967L156.971 11.4642L157.166 10.8467L157.521 10.1242L158.066 9.17674L156.246 5.65674L156.018 5.25424L155.816 5.00674L155.608 4.87924L155.366 4.83674L155.146 4.84924L154.966 4.88674L154.791 4.94924L154.586 5.03674L153.826 3.57674L154.231 3.32924L154.646 3.14674L155.096 3.03424L155.606 2.99674L156.503 3.13174L157.196 3.53674L157.763 4.24174L158.286 5.27674L159.346 7.67674L160.446 5.27674L160.978 4.21674L161.536 3.51674L162.213 3.12674L163.106 2.99674M159.886 11.9367L159.856 11.6392L159.766 11.3467L159.601 10.9942L159.346 10.5167L159.093 11.0067L158.936 11.3567L158.853 11.6417L158.826 11.9367L158.956 12.3717L159.346 12.5167L159.751 12.3717L159.886 11.9367M203.586 10.2067L203.144 11.689L201.817 12.589L199.606 12.9067L199.546 13.6217L199.526 14.6467L199.526 15.4067L197.906 15.4067L197.931 14.0217L198.006 12.9067L193.546 12.9067L193.546 11.0667L198.686 4.32674L193.986 4.32674L193.986 2.32674L201.606 2.32674L201.606 4.10674L196.426 10.9067L198.306 10.9067L199.376 8.77674L201.306 8.06674L202.216 8.20924L202.946 8.63674L203.426 9.31424L203.586 10.2067M201.106 9.52674L200.716 9.60424L200.386 9.83674L200.121 10.2592L199.926 10.9067L200.761 10.8517L201.306 10.7267L201.606 10.4917L201.706 10.1067L201.556 9.67174L201.106 9.52674M4.56547 45.96L5.58547 45.66L6.65797 45.1975L7.43547 44.57L7.90797 43.7075L8.06547 42.54L7.91547 41.3875L7.46547 40.53L6.72547 39.9975L5.70547 39.82L4.97547 39.8925L4.30547 40.11L3.65547 40.4775L2.98547 41L1.68547 39.66L2.64797 38.875L3.65547 38.32L4.75297 37.99L5.98547 37.88L7.33297 38.025L8.49547 38.46L9.44296 39.155L10.1455 40.08L10.5805 41.205L10.7255 42.5L10.5055 44.1375L9.84547 45.33L8.81047 46.1875L7.46547 46.82L7.12547 46.94L7.12547 52.98L4.56547 52.98L4.56547 45.96M39.2255 51.14L42.6655 40.56L45.7255 40.56L49.2255 51.14L46.4455 51.14L44.1855 42.62L41.8655 51.14L39.2255 51.14M83.7455 40.92L84.9955 41.135L85.9455 41.78L86.5455 42.8L86.7455 44.14L86.7455 52.66L86.508 54.16L85.7955 55.26L84.678 55.935L83.2255 56.16L81.8105 55.955L80.6455 55.34L81.5455 53.82L81.923 53.995L82.2555 54.12L82.593 54.195L82.9855 54.22L83.8855 53.885L84.1855 52.88L84.1855 44.54L84.103 43.74L83.8555 43.22L83.448 42.935L82.8855 42.84L82.2705 42.9425L81.7055 43.25L81.1755 43.7475L80.6655 44.42L80.6655 51.8L78.1055 51.8L78.1055 40.06L78.348 38.7025L79.0755 37.63L80.248 36.9325L81.8255 36.7L83.2155 36.855L84.5455 37.32L83.8055 39.04L82.9405 38.74L82.0655 38.64L81.4155 38.7275L80.9855 38.99L80.7455 39.4425L80.6655 40.1L80.6655 42.48L82.0755 41.31L83.7455 40.92M120.926 51.5215L119.506 51.3615L118.286 50.8815L117.296 50.1215L116.566 49.1215L116.116 47.9315L115.966 46.6015L116.091 45.3465L116.466 44.2615L117.076 43.3165L117.906 42.4815L116.246 42.4815L116.246 40.6415L119.946 40.6415L119.946 42.3815L119.393 43.159L118.976 44.0515L118.713 45.114L118.626 46.4015L118.773 47.7915L119.216 48.8015L119.938 49.4165L120.926 49.6215L121.928 49.4165L122.656 48.8015L123.098 47.7915L123.246 46.4015L123.158 45.1165L122.896 44.0615L122.478 43.1715L121.926 42.3815L121.926 40.6415L125.606 40.6415L125.606 42.4815L123.966 42.4815L124.796 43.3165L125.406 44.2615L125.781 45.3465L125.906 46.6015L125.756 47.9165L125.306 49.1015L124.573 50.104L123.576 50.8715L122.348 51.359L120.926 51.5215M167.573 45.8017L167.558 46.3717L167.513 46.8417L160.893 46.8417L161.151 48.1617L161.683 49.0417L162.466 49.5367L163.473 49.7017L164.153 49.6467L164.793 49.4817L165.433 49.1917L166.113 48.7617L167.193 50.2217L165.955 51.0106L164.642 51.4839L163.253 51.6417L161.993 51.5217L160.893 51.1617L159.968 50.5767L159.233 49.7817L158.476 50.6392L157.603 51.2117L156.606 51.5342L155.473 51.6417L154.038 51.4167L152.933 50.7417L152.228 49.7017L151.993 48.3817L152.311 46.8642L153.263 45.7517L154.806 45.0692L156.893 44.8417L158.233 44.8417L158.233 44.2417L158.116 43.3892L157.763 42.8317L157.151 42.5242L156.253 42.4217L154.978 42.5617L153.433 42.9817L152.853 41.2217L154.798 40.6517L156.673 40.4617L158.598 40.8317L159.893 41.9417L161.293 40.8317L163.093 40.4617L164.953 40.8167L166.373 41.8817L167.04 42.9483L167.44 44.255L167.573 45.8017M165.053 45.0617L164.513 42.9767L162.973 42.2817L162.138 42.4542L161.513 42.9717L161.093 43.8692L160.873 45.1817L165.053 45.1817L165.053 45.0617M156.213 49.7817L156.876 49.6867L157.463 49.4017L158.001 48.9217L158.513 48.2417L158.338 47.3967L158.253 46.4617L158.253 46.3817L157.193 46.3817L155.333 46.8417L154.713 48.2217L154.808 48.8917L155.093 49.3817L155.563 49.6817L156.213 49.7817M45.7776 161.882L46.7601 162.034L47.5476 162.492L48.0651 163.214L48.2376 164.162L47.9801 165.402L47.2076 166.322L46.0351 166.892L44.5776 167.082L43.8176 167.042L43.1376 166.922L42.4976 168.382L41.0976 167.822L41.7776 166.342L40.8176 165.539L40.0976 164.452L39.6476 163.119L39.4976 161.582L39.6476 159.999L40.0976 158.612L40.8276 157.467L41.8176 156.612L43.0326 156.079L44.4376 155.902L45.4251 155.977L46.3076 156.202L47.1151 156.587L47.8776 157.142L46.7176 158.702L46.2026 158.354L45.6976 158.112L45.1726 157.969L44.5976 157.922L42.8126 158.827L42.2176 161.542L42.3676 163.102L42.8176 164.222L43.3776 163.154L44.0176 162.432L44.7976 162.019L45.7776 161.882M44.8776 165.122L45.4801 165.059L45.9276 164.872L46.2051 164.559L46.2976 164.122L46.2526 163.822L46.1176 163.602L45.8976 163.467L45.5976 163.422L45.1376 163.507L44.7576 163.762L44.3976 164.242L43.9976 165.002L44.4076 165.092L44.8776 165.122M81.2655 154.32L81.2655 162.86L85.8055 162.86L85.5255 164.9L78.7055 164.9L78.7055 154.32L81.2655 154.32M11.54 84.2763L11.2325 86.4238L10.31 88.0263L8.8775 89.0688L7.04 89.5363L7.04 93.6963L4.48 93.9763L4.48 89.5363L2.6325 89.0688L1.21 88.0263L0.3025 86.4438L0 84.3563L0.3075 82.2088L1.23 80.6063L2.6575 79.5688L4.48 79.1163L4.48 74.8163L7.04 74.5563L7.04 79.1163L8.9025 79.5813L10.33 80.6163L11.2375 82.1913L11.54 84.2763M2.58 84.3563L3.1 86.8013L4.66 87.7763L4.66 80.8563L3.7375 81.1738L3.09 81.8463L2.7075 82.8988L2.58 84.3563M6.86 87.7763L7.785 87.4713L8.44 86.7963L8.83 85.7363L8.96 84.2763L8.435 81.8363L6.86 80.8763L6.86 87.7763M45.5424 83.8892L47.4674 84.2192L48.8824 85.0092L49.7524 86.2592L50.0424 87.9692L49.8874 89.1992L49.4224 90.2892L48.6699 91.1967L47.6524 91.8792L46.3999 92.3067L44.9424 92.4492L43.3624 92.2736L41.9824 91.747L40.8024 90.8692L42.0624 89.4092L42.7174 89.8767L43.3624 90.1992L44.0424 90.3867L44.8024 90.4492L45.8849 90.2842L46.6924 89.7892L47.1949 88.9742L47.3624 87.8492L47.1974 86.7717L46.7024 86.0592L45.8424 85.6617L44.5824 85.5292L42.8424 85.5292L42.8424 83.9092L46.5824 79.4892L40.7824 79.4892L40.7824 85.5892L40.9324 86.1442L41.3824 86.3292L41.6824 86.3042L41.9824 86.2292L42.5224 88.0292L41.6974 88.2992L40.8224 88.3892L39.7349 88.2117L38.9124 87.6792L38.3949 86.8217L38.2224 85.6692L38.2224 73.2692L40.7824 72.9892L40.7824 77.5092L49.4824 77.5092L49.4824 79.3292L45.5424 83.8892M89.5455 79.06L89.5455 89.64L87.3255 89.64L87.1255 88.26L85.7605 89.52L84.0655 89.94L83.208 89.8225L82.4755 89.47L81.898 88.9075L81.5055 88.16L80.833 88.92L80.0955 89.48L79.268 89.825L78.3255 89.94L77.1755 89.7225L76.2855 89.07L75.7155 88.0475L75.5255 86.72L75.5255 79.06L78.0855 79.06L78.0855 86.32L78.3755 87.595L79.2455 88.02L79.823 87.9225L80.3155 87.63L80.773 87.1325L81.2455 86.42L81.2455 79.06L83.8055 79.06L83.8055 86.32L84.0955 87.595L84.9655 88.02L85.558 87.9225L86.0555 87.63L86.513 87.1325L86.9855 86.42L86.9855 79.06L89.5455 79.06M125.243 89.595L122.103 89.595L118.443 81.335L118.6 82.4725L118.713 83.565L118.78 84.7225L118.803 86.055L118.803 89.595L116.503 89.595L116.503 79.015L119.623 79.015L123.303 87.275L123.145 86.3L123.033 85.455L122.965 84.58L122.943 83.515L122.943 79.015L125.243 79.015L125.243 89.595M159.437 76.8424L161.497 77.3349L162.997 78.8124L163.531 79.9068L163.912 81.2199L164.141 82.7518L164.217 84.5024L164.168 85.9288L164.019 87.216L163.771 88.364L163.424 89.3728L162.977 90.2424L161.467 91.7424L159.417 92.2424L157.352 91.7474L155.837 90.2624L155.391 89.3984L155.044 88.3904L154.796 87.2384L154.647 85.9424L154.597 84.5024L154.675 82.7762L154.91 81.2574L155.3 79.9462L155.847 78.8424L157.37 77.3424L159.437 76.8424M159.437 78.7824L158.427 79.0574L157.717 79.8824L157.282 81.3774L157.097 83.6624L161.717 83.6624L161.622 82.0299L161.417 80.7724L161.102 79.8549L160.677 79.2424L160.127 78.8974L159.437 78.7824M159.417 90.3024L160.122 90.1874L160.677 89.8424L161.102 89.2249L161.417 88.2924L161.622 86.9999L161.717 85.3024L157.097 85.3024L157.21 86.9999L157.427 88.2924L157.75 89.2249L158.177 89.8424L158.727 90.1874L159.417 90.3024M199.145 82.16L200.69 82.5025L201.965 83.21L202.82 84.3925L203.105 86.16L202.955 87.385L202.505 88.46L201.8 89.3475L200.885 90.01L199.81 90.4225L198.625 90.56L197.135 90.32L195.745 89.6L195.745 94.28L193.245 94.62L193.245 79.38L193.548 77.615L194.455 76.28L195.868 75.44L197.685 75.16L198.89 75.2775L199.945 75.63L200.815 76.195L201.465 76.95L201.87 77.8625L202.005 78.9L201.813 80.115L201.235 81.08L200.328 81.77L199.145 82.16M198.105 88.56L199.07 88.395L199.845 87.9L200.355 87.095L200.525 86L199.78 83.9L197.545 83.2L196.645 83.2L196.845 81.4L197.565 81.4L198.375 81.255L199.005 80.82L199.41 80.095L199.545 79.08L199.42 78.1875L199.045 77.55L198.45 77.1675L197.665 77.04L196.225 77.625L195.745 79.38L195.745 87.9L196.805 88.395L198.105 88.56M122.123 153.045L123.385 153.257L124.333 153.895L124.925 154.912L125.123 156.265L125.123 164.785L124.885 166.285L124.173 167.385L123.055 168.06L121.603 168.285L120.188 168.08L119.023 167.465L119.923 165.945L120.3 166.12L120.633 166.245L120.97 166.32L121.363 166.345L122.263 166.01L122.563 165.005L122.563 156.665L122.48 155.865L122.233 155.345L121.825 155.06L121.263 154.965L120.635 155.067L120.073 155.375L119.55 155.877L119.043 156.565L119.043 163.925L116.483 163.925L116.483 153.345L118.703 153.345L118.903 154.725L120.358 153.465L122.123 153.045M5.6147 127.403L4.4797 127.308L3.5147 127.023L3.5147 128.183L3.8447 129.188L4.8347 129.523L5.2647 129.495L5.6347 129.413L5.9947 129.275L6.3947 129.083L7.2947 130.643L6.0897 131.243L4.6747 131.443L3.2147 131.22L2.1147 130.553L1.4247 129.46L1.1947 127.963L1.1947 125.903L2.2947 124.663L3.7247 125.293L5.3347 125.503L6.1097 125.418L6.7147 125.163L7.1047 124.768L7.2347 124.263L7.1872 123.835L7.0447 123.513L6.7797 123.255L6.3647 123.023L5.7372 122.783L4.8347 122.503L3.4297 121.975L2.4547 121.273L1.8847 120.385L1.6947 119.303L1.8222 118.468L2.2047 117.723L2.8197 117.098L3.6447 116.623L4.6422 116.323L5.7747 116.223L7.7847 116.538L9.5347 117.483L8.5347 119.023L7.2247 118.348L5.9347 118.123L5.2272 118.195L4.7047 118.413L4.3822 118.75L4.2747 119.183L4.3197 119.513L4.4547 119.783L4.7072 120.015L5.1047 120.233L5.6872 120.455L6.4947 120.703L7.9922 121.238L9.0447 121.923L9.6672 122.833L9.8747 124.043L9.7297 125.028L9.2947 125.863L8.6147 126.53L7.7347 127.013L6.7147 127.305L5.6147 127.403M43.9226 117.157L46.0426 117.53L47.5626 118.647L48.2404 119.764L48.647 121.127L48.7826 122.737L48.6401 124.297L48.2126 125.657L47.5126 126.78L46.5526 127.627L45.3651 128.16L43.9826 128.337L42.6676 128.177L41.5226 127.697L40.5826 126.917L39.8826 125.857L39.4476 124.542L39.3026 122.997L39.3176 122.442L39.3626 121.937L46.2226 121.937L46.0001 120.64L45.5326 119.747L44.8151 119.23L43.8426 119.057L43.1251 119.112L42.4526 119.277L41.8001 119.567L41.1426 119.997L40.0426 118.477L41.2026 117.744L42.4959 117.304L43.9226 117.157M43.9826 126.457L44.9026 126.29L45.5826 125.787L46.0226 124.905L46.2226 123.597L41.7626 123.597L41.7626 123.757L41.9101 124.895L42.3526 125.747L43.0551 126.28L43.9826 126.457M121.119 122.071L123.044 122.383L124.459 123.161L125.329 124.403L125.619 126.111L125.464 127.356L124.999 128.451L124.247 129.361L123.229 130.051L121.977 130.486L120.519 130.631L119.134 130.508L117.939 130.141L116.909 129.533L116.019 128.691L117.439 127.351L118.137 127.936L118.829 128.331L119.567 128.556L120.399 128.631L121.467 128.463L122.269 127.961L122.772 127.133L122.939 125.991L122.774 124.943L122.279 124.241L121.419 123.843L120.159 123.711L118.439 123.711L118.439 122.091L122.159 117.671L116.739 117.671L116.739 115.691L125.059 115.691L125.059 117.511L121.119 122.071M196.15 117.717L196.978 115.855L198.1 114.507L199.623 113.645L201.65 113.237L201.89 115.037L200.935 115.22L200.19 115.487L199.615 115.852L199.17 116.327L198.81 116.95L198.49 117.757L199.41 117.757L202.79 128.337L200.07 128.337L197.75 119.457L195.37 128.337L192.73 128.337L196.15 117.717M87.1993 124.862L87.2468 125.484L87.3893 125.912L87.6568 126.219L88.0793 126.482L87.3193 128.362L86.4293 128.114L85.7593 127.772L85.2693 127.319L84.9193 126.742L84.2993 127.419L83.5593 127.932L82.7293 128.254L81.8393 128.362L80.1143 127.984L78.8193 126.852L78.2193 125.728L77.8593 124.372L77.7393 122.782L77.8718 121.234L78.2693 119.872L78.9118 118.742L79.7793 117.892L80.8493 117.359L82.0993 117.182L83.5943 117.512L84.8393 118.502L84.9793 117.482L87.1993 117.482L87.1993 124.862M82.4393 126.422L83.0918 126.337L83.6493 126.082L84.1518 125.652L84.6393 125.042L84.6393 120.222L84.1743 119.732L83.6993 119.382L83.1843 119.172L82.5993 119.102L81.6918 119.327L81.0093 120.002L80.5818 121.142L80.4393 122.762L80.5693 124.444L80.9593 125.572L81.5893 126.209L82.4393 126.422M84.0199 115.182L83.6274 115.144L83.2899 115.032L82.9574 114.854L82.5799 114.622L82.3099 114.449L82.0999 114.332L81.9149 114.264L81.7199 114.242L81.4074 114.294L81.1499 114.452L80.9124 114.729L80.6599 115.142L79.2799 114.462L79.7299 113.614L80.2799 112.952L80.9299 112.524L81.6799 112.382L82.0874 112.417L82.4299 112.522L82.7674 112.692L83.1599 112.922L83.4024 113.094L83.6099 113.212L83.8024 113.279L83.9999 113.302L84.2849 113.252L84.5399 113.102L84.7899 112.837L85.0599 112.442L86.4199 113.122L85.9649 113.979L85.3999 114.632L84.7449 115.044L84.0199 115.182M5.34654 167.226L3.80904 166.988L2.55654 166.276L1.72404 165.118L1.44654 163.546L1.44654 156.346L4.00654 156.346L4.00654 163.386L4.38154 164.811L5.50654 165.286L6.39654 165.086L7.10654 164.486L7.57153 163.426L7.72654 161.846L7.72654 158.766L7.69153 158.436L7.58654 158.206L7.40154 158.071L7.12654 158.026L6.83653 158.051L6.56654 158.126L6.08654 156.366L6.83153 156.126L7.66654 156.046L8.75654 156.226L9.58654 156.766L10.1115 157.656L10.2865 158.886L10.2865 161.766L10.119 163.481L9.61654 164.866L8.83654 165.923L7.83654 166.656L6.65903 167.083L5.34654 167.226M162.299 119.077L160.619 119.077L160.619 125.877L162.299 125.877L162.299 127.777L156.399 127.777L156.399 125.877L158.059 125.877L158.059 119.077L156.399 119.077L156.399 117.197L162.299 117.197L162.299 119.077M157.141 112.077L157.676 112.177L158.121 112.477L158.421 112.922L158.521 113.457L158.421 113.992L158.121 114.437L157.676 114.737L157.141 114.837L156.589 114.737L156.131 114.437L155.824 113.992L155.721 113.457L155.824 112.922L156.131 112.477L156.589 112.177L157.141 112.077M161.561 112.077L162.111 112.177L162.561 112.477L162.861 112.922L162.961 113.457L162.861 113.992L162.561 114.437L162.111 114.737L161.561 114.837L161.024 114.737L160.571 114.437L160.264 113.992L160.161 113.457L160.264 112.922L160.571 112.477L161.024 112.177L161.561 112.077" />
  <path id="shape1" transform="translate(205.199987329968, 178.299989982927)" fill="#000000" fill-rule="evenodd" stroke="none" d="M7.68 0L7.68 -4.42L4.1 -4.42L4.1 0L1.54 0L1.54 -10.58L4.1 -10.58L4.1 -6.36L7.68 -6.36L7.68 -10.58L10.24 -10.58L10.24 0L7.68 0" />
</svg>
  
